<?xml version="1.0" encoding="utf-8"?>
<!-- Generator: Adobe Illustrator 25.3.0, SVG Export Plug-In . SVG Version: 6.00 Build 0)  -->
<svg version="1.1" id="レイヤー_1" xmlns="http://www.w3.org/2000/svg" xmlns:xlink="http://www.w3.org/1999/xlink" x="0px"
	 y="0px" viewBox="0 0 566.9 566.9" style="enable-background:new 0 0 566.9 566.9;" xml:space="preserve">
<style type="text/css">
	.st0{fill:none;stroke:#FFFFFF;stroke-width:60;stroke-miterlimit:10;}
	.st1{clip-path:url(#SVGID_2_);}
	.st2{fill:#FFFFFF;}
</style>
<circle class="st0" cx="283.5" cy="283.5" r="253.9"/>
<g>
	<g>
		<g>
			<g>
				<defs>
					<circle id="SVGID_1_" cx="283.5" cy="283.5" r="230.7"/>
				</defs>
				<clipPath id="SVGID_2_">
					<use xlink:href="#SVGID_1_"  style="overflow:visible;"/>
				</clipPath>
				<g class="st1">
					<path class="st2" d="M228.9,260.7c12.4-0.3,39.1-2.4,53-4.8c0.5,9.8,0.7,20.4,1.2,30.4c-13.2,1.9-39.3,3.1-51.6,3.1h-53.9
						c-42,0-61-17.3-61-55.6V94.9l38.2,1.6c-0.5,2.9-2.2,5-7.5,5.5v71.2c30.7-10.1,76.1-28.3,104.3-44.2l20.4,28.5
						c-1,0.5-2.4,0.7-3.8,0.7c-1.5,0-2.6-0.3-4.1-0.5c-22.8,11.3-76.1,32.2-116.8,43.7V234c0,19.9,8.9,26.6,31,26.6L228.9,260.7
						L228.9,260.7z"/>
					<path class="st2" d="M470.7,120.4v161.7H440v-13.6H329v14.2h-30V120.4H470.7z M439.8,240.3v-91.9H329v91.9L439.8,240.3
						L439.8,240.3z"/>
					<path class="st2" d="M277.9,307.8v166.7h-31.4v-12.3H106.9v-28.5h139.6v-97.4H108.8v-28.5L277.9,307.8L277.9,307.8z"/>
					<path class="st2" d="M306,291.4c24,7.5,52.8,20.2,70.3,31.7l-15.8,27.3c-17.3-11.5-45.6-24.7-68.6-32.9L306,291.4z
						 M297.8,453.9c80.9-25,136.5-72,164.4-137.9c8.9,7.2,19.2,13,28.1,17.7c-29.7,65.5-87,116.6-166.5,144.7
						c-0.5,2.6-1.9,5.3-4.1,6.3L297.8,453.9z"/>
				</g>
			</g>
		</g>
	</g>
</g>
</svg>
